<?xml version="1.0" encoding="UTF-8" standalone="no"?><svg xmlns="http://www.w3.org/2000/svg" xmlns:xlink="http://www.w3.org/1999/xlink" contentStyleType="text/css" height="2224px" preserveAspectRatio="none" style="width:802px;height:2224px;background:#FFFFFF;" version="1.1" viewBox="0 0 802 2224" width="802px" zoomAndPan="magnify"><defs/><g><rect fill="none" height="26.2969" id="_title" style="stroke:none;stroke-width:1.0;" width="428" x="185.5" y="15"/><text fill="#000000" font-family="sans-serif" font-size="14" font-weight="bold" lengthAdjust="spacing" textLength="418" x="190.5" y="32.9951">Activity Diagram - Bot Preparation and Early Lifecycle</text><ellipse cx="253" cy="57.2969" fill="#222222" rx="10" ry="10" style="stroke:#222222;stroke-width:1.0;"/><rect fill="#F1F1F1" height="33.9688" rx="12.5" ry="12.5" style="stroke:#181818;stroke-width:0.5;" width="87" x="209.5" y="87.2969"/><text fill="#000000" font-family="sans-serif" font-size="12" lengthAdjust="spacing" textLength="67" x="219.5" y="108.4355">Create Bot</text><polygon fill="#F1F1F1" points="178.5,141.2656,327.5,141.2656,339.5,153.2656,327.5,165.2656,178.5,165.2656,166.5,153.2656,178.5,141.2656" style="stroke:#181818;stroke-width:0.5;"/><text fill="#000000" font-family="sans-serif" font-size="11" lengthAdjust="spacing" textLength="149" x="178.5" y="157.0737">Identity already assigned?</text><text fill="#000000" font-family="sans-serif" font-size="11" lengthAdjust="spacing" textLength="20" x="146.5" y="150.6714">yes</text><text fill="#000000" font-family="sans-serif" font-size="11" lengthAdjust="spacing" textLength="14" x="339.5" y="150.6714">no</text><rect fill="#F1F1F1" height="33.9688" rx="12.5" ry="12.5" style="stroke:#181818;stroke-width:0.5;" width="155" x="11" y="175.2656"/><text fill="#000000" font-family="sans-serif" font-size="12" lengthAdjust="spacing" textLength="135" x="21" y="196.4043">Use assigned identity</text><rect fill="#F1F1F1" height="33.9688" rx="12.5" ry="12.5" style="stroke:#181818;stroke-width:0.5;" width="202" x="316.5" y="175.2656"/><text fill="#000000" font-family="sans-serif" font-size="12" lengthAdjust="spacing" textLength="182" x="326.5" y="196.4043">Start identity generation flow</text><polygon fill="#F1F1F1" points="372,229.2344,463,229.2344,475,241.2344,463,253.2344,372,253.2344,360,241.2344,372,229.2344" style="stroke:#181818;stroke-width:0.5;"/><text fill="#000000" font-family="sans-serif" font-size="11" lengthAdjust="spacing" textLength="91" x="372" y="245.0425">Email available?</text><text fill="#000000" font-family="sans-serif" font-size="11" lengthAdjust="spacing" textLength="20" x="340" y="238.6401">yes</text><text fill="#000000" font-family="sans-serif" font-size="11" lengthAdjust="spacing" textLength="14" x="475" y="238.6401">no</text><rect fill="#F1F1F1" height="33.9688" rx="12.5" ry="12.5" style="stroke:#181818;stroke-width:0.5;" width="159" x="196" y="263.2344"/><text fill="#000000" font-family="sans-serif" font-size="12" lengthAdjust="spacing" textLength="139" x="206" y="284.373">Reserve existing email</text><rect fill="#F1F1F1" height="33.9688" rx="12.5" ry="12.5" style="stroke:#181818;stroke-width:0.5;" width="191" x="464" y="263.2344"/><text fill="#000000" font-family="sans-serif" font-size="12" lengthAdjust="spacing" textLength="171" x="474" y="284.373">Run Email Creation Pipeline</text><rect fill="#F1F1F1" height="33.9688" rx="12.5" ry="12.5" style="stroke:#181818;stroke-width:0.5;" width="151" x="484" y="317.2031"/><text fill="#000000" font-family="sans-serif" font-size="12" lengthAdjust="spacing" textLength="131" x="494" y="338.3418">Select email provider</text><rect fill="#F1F1F1" height="33.9688" rx="12.5" ry="12.5" style="stroke:#181818;stroke-width:0.5;" width="197" x="461" y="371.1719"/><text fill="#000000" font-family="sans-serif" font-size="12" lengthAdjust="spacing" textLength="177" x="471" y="392.3105">Generate mailbox username</text><rect fill="#F1F1F1" height="33.9688" rx="12.5" ry="12.5" style="stroke:#181818;stroke-width:0.5;" width="188" x="465.5" y="425.1406"/><text fill="#000000" font-family="sans-serif" font-size="12" lengthAdjust="spacing" textLength="168" x="475.5" y="446.2793">Generate strong password</text><rect fill="#F1F1F1" height="33.9688" rx="12.5" ry="12.5" style="stroke:#181818;stroke-width:0.5;" width="168" x="475.5" y="479.1094"/><text fill="#000000" font-family="sans-serif" font-size="12" lengthAdjust="spacing" textLength="148" x="485.5" y="500.248">Create mailbox account</text><rect fill="#F1F1F1" height="33.9688" rx="12.5" ry="12.5" style="stroke:#181818;stroke-width:0.5;" width="165" x="477" y="533.0781"/><text fill="#000000" font-family="sans-serif" font-size="12" lengthAdjust="spacing" textLength="145" x="487" y="554.2168">Store email credentials</text><polygon fill="#F1F1F1" points="491.5,587.0469,627.5,587.0469,639.5,599.0469,627.5,611.0469,491.5,611.0469,479.5,599.0469,491.5,587.0469" style="stroke:#181818;stroke-width:0.5;"/><text fill="#000000" font-family="sans-serif" font-size="11" lengthAdjust="spacing" textLength="136" x="491.5" y="602.855">Email pipeline success?</text><text fill="#000000" font-family="sans-serif" font-size="11" lengthAdjust="spacing" textLength="20" x="459.5" y="596.4526">yes</text><text fill="#000000" font-family="sans-serif" font-size="11" lengthAdjust="spacing" textLength="14" x="639.5" y="596.4526">no</text><rect fill="#F1F1F1" height="33.9688" rx="12.5" ry="12.5" style="stroke:#181818;stroke-width:0.5;" width="136" x="385" y="621.0469"/><text fill="#000000" font-family="sans-serif" font-size="12" lengthAdjust="spacing" textLength="116" x="395" y="642.1855">Reserve new email</text><rect fill="#F1F1F1" height="33.9688" rx="12.5" ry="12.5" style="stroke:#181818;stroke-width:0.5;" width="250" x="541" y="621.0469"/><text fill="#000000" font-family="sans-serif" font-size="12" lengthAdjust="spacing" textLength="230" x="551" y="642.1855">Mark bot blocked (email unavailable)</text><ellipse cx="666" cy="686.0156" fill="none" rx="11" ry="11" style="stroke:#222222;stroke-width:1.0;"/><ellipse cx="666" cy="686.0156" fill="#222222" rx="6" ry="6" style="stroke:#111111;stroke-width:1.0;"/><polygon fill="#F1F1F1" points="417.5,707.0156,429.5,719.0156,417.5,731.0156,405.5,719.0156,417.5,707.0156" style="stroke:#181818;stroke-width:0.5;"/><polygon fill="#F1F1F1" points="372,751.0156,463,751.0156,475,763.0156,463,775.0156,372,775.0156,360,763.0156,372,751.0156" style="stroke:#181818;stroke-width:0.5;"/><text fill="#000000" font-family="sans-serif" font-size="11" lengthAdjust="spacing" textLength="91" x="372" y="766.8237">Proxy available?</text><text fill="#000000" font-family="sans-serif" font-size="11" lengthAdjust="spacing" textLength="20" x="340" y="760.4214">yes</text><text fill="#000000" font-family="sans-serif" font-size="11" lengthAdjust="spacing" textLength="14" x="475" y="760.4214">no</text><rect fill="#F1F1F1" height="33.9688" rx="12.5" ry="12.5" style="stroke:#181818;stroke-width:0.5;" width="142" x="265.5" y="785.0156"/><text fill="#000000" font-family="sans-serif" font-size="12" lengthAdjust="spacing" textLength="122" x="275.5" y="806.1543">Get proxy from pool</text><rect fill="#F1F1F1" height="33.9688" rx="12.5" ry="12.5" style="stroke:#181818;stroke-width:0.5;" width="136" x="430.5" y="785.0156"/><text fill="#000000" font-family="sans-serif" font-size="12" lengthAdjust="spacing" textLength="116" x="440.5" y="806.1543">Refresh proxy pool</text><rect fill="#F1F1F1" height="33.9688" rx="12.5" ry="12.5" style="stroke:#181818;stroke-width:0.5;" width="142" x="427.5" y="838.9844"/><text fill="#000000" font-family="sans-serif" font-size="12" lengthAdjust="spacing" textLength="122" x="437.5" y="860.123">Get proxy from pool</text><polygon fill="#F1F1F1" points="417.5,878.9531,429.5,890.9531,417.5,902.9531,405.5,890.9531,417.5,878.9531" style="stroke:#181818;stroke-width:0.5;"/><rect fill="#F1F1F1" height="33.9688" rx="12.5" ry="12.5" style="stroke:#181818;stroke-width:0.5;" width="162" x="336.5" y="922.9531"/><text fill="#000000" font-family="sans-serif" font-size="12" lengthAdjust="spacing" textLength="142" x="346.5" y="944.0918">Test proxy connectivity</text><polygon fill="#F1F1F1" points="363,976.9219,472,976.9219,484,988.9219,472,1000.9219,363,1000.9219,351,988.9219,363,976.9219" style="stroke:#181818;stroke-width:0.5;"/><text fill="#000000" font-family="sans-serif" font-size="11" lengthAdjust="spacing" textLength="109" x="363" y="992.73">Proxy test passed?</text><text fill="#000000" font-family="sans-serif" font-size="11" lengthAdjust="spacing" textLength="20" x="331" y="986.3276">yes</text><text fill="#000000" font-family="sans-serif" font-size="11" lengthAdjust="spacing" textLength="14" x="484" y="986.3276">no</text><rect fill="#F1F1F1" height="33.9688" rx="12.5" ry="12.5" style="stroke:#181818;stroke-width:0.5;" width="140" x="235" y="1010.9219"/><text fill="#000000" font-family="sans-serif" font-size="12" lengthAdjust="spacing" textLength="120" x="245" y="1032.0605">Assign proxy to bot</text><rect fill="#F1F1F1" height="33.9688" rx="12.5" ry="12.5" style="stroke:#181818;stroke-width:0.5;" width="96" x="482" y="1010.9219"/><text fill="#000000" font-family="sans-serif" font-size="12" lengthAdjust="spacing" textLength="76" x="492" y="1032.0605">Reject proxy</text><rect fill="#F1F1F1" height="33.9688" rx="12.5" ry="12.5" style="stroke:#181818;stroke-width:0.5;" width="157" x="451.5" y="1064.8906"/><text fill="#000000" font-family="sans-serif" font-size="12" lengthAdjust="spacing" textLength="137" x="461.5" y="1086.0293">Retry get proxy + test</text><rect fill="#F1F1F1" height="33.9688" rx="12.5" ry="12.5" style="stroke:#181818;stroke-width:0.5;" width="250" x="405" y="1167.2617"/><text fill="#000000" font-family="sans-serif" font-size="12" lengthAdjust="spacing" textLength="230" x="415" y="1188.4004">Mark bot blocked (proxy unavailable)</text><ellipse cx="530" cy="1247.2305" fill="none" rx="11" ry="11" style="stroke:#222222;stroke-width:1.0;"/><ellipse cx="530" cy="1247.2305" fill="#222222" rx="6" ry="6" style="stroke:#111111;stroke-width:1.0;"/><polygon fill="#F1F1F1" points="473.5,1118.8594,586.5,1118.8594,598.5,1130.8594,586.5,1142.8594,473.5,1142.8594,461.5,1130.8594,473.5,1118.8594" style="stroke:#181818;stroke-width:0.5;"/><text fill="#000000" font-family="sans-serif" font-size="11" lengthAdjust="spacing" textLength="20" x="534" y="1153.0698">yes</text><text fill="#000000" font-family="sans-serif" font-size="11" lengthAdjust="spacing" textLength="113" x="473.5" y="1134.6675">Retry limit reached?</text><polygon fill="#F1F1F1" points="417.5,1286.2305,429.5,1298.2305,417.5,1310.2305,405.5,1298.2305,417.5,1286.2305" style="stroke:#181818;stroke-width:0.5;"/><rect fill="#F1F1F1" height="33.9688" rx="12.5" ry="12.5" style="stroke:#181818;stroke-width:0.5;" width="344" x="245.5" y="1330.2305"/><text fill="#000000" font-family="sans-serif" font-size="12" lengthAdjust="spacing" textLength="324" x="255.5" y="1351.3691">Generate identity (username, persona, credentials)</text><rect fill="#F1F1F1" height="33.9688" rx="12.5" ry="12.5" style="stroke:#181818;stroke-width:0.5;" width="241" x="297" y="1384.1992"/><text fill="#000000" font-family="sans-serif" font-size="12" lengthAdjust="spacing" textLength="221" x="307" y="1405.3379">Bind identity + email + proxy to bot</text><polygon fill="#F1F1F1" points="253,1424.168,265,1436.168,253,1448.168,241,1436.168,253,1424.168" style="stroke:#181818;stroke-width:0.5;"/><rect fill="#F1F1F1" height="33.9688" rx="12.5" ry="12.5" style="stroke:#181818;stroke-width:0.5;" width="158" x="174" y="1468.168"/><text fill="#000000" font-family="sans-serif" font-size="12" lengthAdjust="spacing" textLength="138" x="184" y="1489.3066">Select target platform</text><rect fill="#F1F1F1" height="33.9688" rx="12.5" ry="12.5" style="stroke:#181818;stroke-width:0.5;" width="282" x="112" y="1522.1367"/><text fill="#000000" font-family="sans-serif" font-size="12" lengthAdjust="spacing" textLength="262" x="122" y="1543.2754">Bot ready for account generation pipeline</text><rect fill="#F1F1F1" height="33.9688" rx="12.5" ry="12.5" style="stroke:#181818;stroke-width:0.5;" width="208" x="149" y="1576.1055"/><text fill="#000000" font-family="sans-serif" font-size="12" lengthAdjust="spacing" textLength="188" x="159" y="1597.2441">Run account creation pipeline</text><rect fill="#F1F1F1" height="33.9688" rx="12.5" ry="12.5" style="stroke:#181818;stroke-width:0.5;" width="173" x="166.5" y="1630.0742"/><text fill="#000000" font-family="sans-serif" font-size="12" lengthAdjust="spacing" textLength="153" x="176.5" y="1651.2129">Submit registration data</text><rect fill="#F1F1F1" height="33.9688" rx="12.5" ry="12.5" style="stroke:#181818;stroke-width:0.5;" width="413" x="46.5" y="1684.043"/><text fill="#000000" font-family="sans-serif" font-size="12" lengthAdjust="spacing" textLength="393" x="56.5" y="1705.1816">Handle verification (email/SMS/captcha/manual step if needed)</text><polygon fill="#F1F1F1" points="177.5,1738.0117,328.5,1738.0117,340.5,1750.0117,328.5,1762.0117,177.5,1762.0117,165.5,1750.0117,177.5,1738.0117" style="stroke:#181818;stroke-width:0.5;"/><text fill="#000000" font-family="sans-serif" font-size="11" lengthAdjust="spacing" textLength="151" x="177.5" y="1753.8198">Account creation success?</text><text fill="#000000" font-family="sans-serif" font-size="11" lengthAdjust="spacing" textLength="20" x="145.5" y="1747.4175">yes</text><text fill="#000000" font-family="sans-serif" font-size="11" lengthAdjust="spacing" textLength="14" x="340.5" y="1747.4175">no</text><rect fill="#F1F1F1" height="33.9688" rx="12.5" ry="12.5" style="stroke:#181818;stroke-width:0.5;" width="226" x="26.25" y="1772.0117"/><text fill="#000000" font-family="sans-serif" font-size="12" lengthAdjust="spacing" textLength="206" x="36.25" y="1793.1504">Persist platform account/session</text><rect fill="#F1F1F1" height="33.9688" rx="12.5" ry="12.5" style="stroke:#181818;stroke-width:0.5;" width="189" x="272.25" y="1772.0117"/><text fill="#000000" font-family="sans-serif" font-size="12" lengthAdjust="spacing" textLength="169" x="282.25" y="1793.1504">Mark identity failed/flagged</text><ellipse cx="366.75" cy="1836.9805" fill="none" rx="11" ry="11" style="stroke:#222222;stroke-width:1.0;"/><ellipse cx="366.75" cy="1836.9805" fill="#222222" rx="6" ry="6" style="stroke:#111111;stroke-width:1.0;"/><rect fill="#F1F1F1" height="33.9688" rx="12.5" ry="12.5" style="stroke:#181818;stroke-width:0.5;" width="214" x="146" y="1867.9805"/><text fill="#000000" font-family="sans-serif" font-size="12" lengthAdjust="spacing" textLength="194" x="156" y="1889.1191">Run algorithm for minor activity</text><rect fill="#F1F1F1" height="33.9688" rx="12.5" ry="12.5" style="stroke:#181818;stroke-width:0.5;" width="338" x="84" y="1921.9492"/><text fill="#000000" font-family="sans-serif" font-size="12" lengthAdjust="spacing" textLength="318" x="94" y="1943.0879">Low-risk actions (view, light vote, short interaction)</text><rect fill="#F1F1F1" height="33.9688" rx="12.5" ry="12.5" style="stroke:#181818;stroke-width:0.5;" width="161" x="172.5" y="1975.918"/><text fill="#000000" font-family="sans-serif" font-size="12" lengthAdjust="spacing" textLength="141" x="182.5" y="1997.0566">Add profile to sandbox</text><rect fill="#F1F1F1" height="33.9688" rx="12.5" ry="12.5" style="stroke:#181818;stroke-width:0.5;" width="184" x="161" y="2029.8867"/><text fill="#000000" font-family="sans-serif" font-size="12" lengthAdjust="spacing" textLength="164" x="171" y="2051.0254">Run trust-building pipeline</text><rect fill="#F1F1F1" height="33.9688" rx="12.5" ry="12.5" style="stroke:#181818;stroke-width:0.5;" width="172" x="167" y="2083.8555"/><text fill="#000000" font-family="sans-serif" font-size="12" lengthAdjust="spacing" textLength="152" x="177" y="2104.9941">Gradual activity ramp-up</text><rect fill="#F1F1F1" height="33.9688" rx="12.5" ry="12.5" style="stroke:#181818;stroke-width:0.5;" width="195" x="155.5" y="2137.8242"/><text fill="#000000" font-family="sans-serif" font-size="12" lengthAdjust="spacing" textLength="175" x="165.5" y="2158.9629">Monitor flags/health metrics</text><ellipse cx="253" cy="2202.793" fill="none" rx="11" ry="11" style="stroke:#222222;stroke-width:1.0;"/><ellipse cx="253" cy="2202.793" fill="#222222" rx="6" ry="6" style="stroke:#111111;stroke-width:1.0;"/><line style="stroke:#181818;stroke-width:1.0;" x1="253" x2="253" y1="67.2969" y2="87.2969"/><polygon fill="#181818" points="249,77.2969,253,87.2969,257,77.2969,253,81.2969" style="stroke:#181818;stroke-width:1.0;"/><line style="stroke:#181818;stroke-width:1.0;" x1="559.5" x2="559.5" y1="297.2031" y2="317.2031"/><polygon fill="#181818" points="555.5,307.2031,559.5,317.2031,563.5,307.2031,559.5,311.2031" style="stroke:#181818;stroke-width:1.0;"/><line style="stroke:#181818;stroke-width:1.0;" x1="559.5" x2="559.5" y1="351.1719" y2="371.1719"/><polygon fill="#181818" points="555.5,361.1719,559.5,371.1719,563.5,361.1719,559.5,365.1719" style="stroke:#181818;stroke-width:1.0;"/><line style="stroke:#181818;stroke-width:1.0;" x1="559.5" x2="559.5" y1="405.1406" y2="425.1406"/><polygon fill="#181818" points="555.5,415.1406,559.5,425.1406,563.5,415.1406,559.5,419.1406" style="stroke:#181818;stroke-width:1.0;"/><line style="stroke:#181818;stroke-width:1.0;" x1="559.5" x2="559.5" y1="459.1094" y2="479.1094"/><polygon fill="#181818" points="555.5,469.1094,559.5,479.1094,563.5,469.1094,559.5,473.1094" style="stroke:#181818;stroke-width:1.0;"/><line style="stroke:#181818;stroke-width:1.0;" x1="559.5" x2="559.5" y1="513.0781" y2="533.0781"/><polygon fill="#181818" points="555.5,523.0781,559.5,533.0781,563.5,523.0781,559.5,527.0781" style="stroke:#181818;stroke-width:1.0;"/><line style="stroke:#181818;stroke-width:1.0;" x1="666" x2="666" y1="655.0156" y2="675.0156"/><polygon fill="#181818" points="662,665.0156,666,675.0156,670,665.0156,666,669.0156" style="stroke:#181818;stroke-width:1.0;"/><line style="stroke:#181818;stroke-width:1.0;" x1="479.5" x2="453" y1="599.0469" y2="599.0469"/><line style="stroke:#181818;stroke-width:1.0;" x1="453" x2="453" y1="599.0469" y2="621.0469"/><polygon fill="#181818" points="449,611.0469,453,621.0469,457,611.0469,453,615.0469" style="stroke:#181818;stroke-width:1.0;"/><line style="stroke:#181818;stroke-width:1.0;" x1="639.5" x2="666" y1="599.0469" y2="599.0469"/><line style="stroke:#181818;stroke-width:1.0;" x1="666" x2="666" y1="599.0469" y2="621.0469"/><polygon fill="#181818" points="662,611.0469,666,621.0469,670,611.0469,666,615.0469" style="stroke:#181818;stroke-width:1.0;"/><line style="stroke:#181818;stroke-width:1.0;" x1="453" x2="453" y1="655.0156" y2="719.0156"/><line style="stroke:#181818;stroke-width:1.0;" x1="453" x2="429.5" y1="719.0156" y2="719.0156"/><polygon fill="#181818" points="439.5,715.0156,429.5,719.0156,439.5,723.0156,435.5,719.0156" style="stroke:#181818;stroke-width:1.0;"/><line style="stroke:#181818;stroke-width:1.0;" x1="559.5" x2="559.5" y1="567.0469" y2="587.0469"/><polygon fill="#181818" points="555.5,577.0469,559.5,587.0469,563.5,577.0469,559.5,581.0469" style="stroke:#181818;stroke-width:1.0;"/><line style="stroke:#181818;stroke-width:1.0;" x1="360" x2="275.5" y1="241.2344" y2="241.2344"/><line style="stroke:#181818;stroke-width:1.0;" x1="275.5" x2="275.5" y1="241.2344" y2="263.2344"/><polygon fill="#181818" points="271.5,253.2344,275.5,263.2344,279.5,253.2344,275.5,257.2344" style="stroke:#181818;stroke-width:1.0;"/><line style="stroke:#181818;stroke-width:1.0;" x1="475" x2="559.5" y1="241.2344" y2="241.2344"/><line style="stroke:#181818;stroke-width:1.0;" x1="559.5" x2="559.5" y1="241.2344" y2="263.2344"/><polygon fill="#181818" points="555.5,253.2344,559.5,263.2344,563.5,253.2344,559.5,257.2344" style="stroke:#181818;stroke-width:1.0;"/><line style="stroke:#181818;stroke-width:1.0;" x1="275.5" x2="275.5" y1="297.2031" y2="719.0156"/><line style="stroke:#181818;stroke-width:1.0;" x1="275.5" x2="405.5" y1="719.0156" y2="719.0156"/><polygon fill="#181818" points="395.5,715.0156,405.5,719.0156,395.5,723.0156,399.5,719.0156" style="stroke:#181818;stroke-width:1.0;"/><line style="stroke:#181818;stroke-width:1.0;" x1="417.5" x2="417.5" y1="209.2344" y2="229.2344"/><polygon fill="#181818" points="413.5,219.2344,417.5,229.2344,421.5,219.2344,417.5,223.2344" style="stroke:#181818;stroke-width:1.0;"/><line style="stroke:#181818;stroke-width:1.0;" x1="498.5" x2="498.5" y1="818.9844" y2="838.9844"/><polygon fill="#181818" points="494.5,828.9844,498.5,838.9844,502.5,828.9844,498.5,832.9844" style="stroke:#181818;stroke-width:1.0;"/><line style="stroke:#181818;stroke-width:1.0;" x1="360" x2="336.5" y1="763.0156" y2="763.0156"/><line style="stroke:#181818;stroke-width:1.0;" x1="336.5" x2="336.5" y1="763.0156" y2="785.0156"/><polygon fill="#181818" points="332.5,775.0156,336.5,785.0156,340.5,775.0156,336.5,779.0156" style="stroke:#181818;stroke-width:1.0;"/><line style="stroke:#181818;stroke-width:1.0;" x1="475" x2="498.5" y1="763.0156" y2="763.0156"/><line style="stroke:#181818;stroke-width:1.0;" x1="498.5" x2="498.5" y1="763.0156" y2="785.0156"/><polygon fill="#181818" points="494.5,775.0156,498.5,785.0156,502.5,775.0156,498.5,779.0156" style="stroke:#181818;stroke-width:1.0;"/><line style="stroke:#181818;stroke-width:1.0;" x1="336.5" x2="336.5" y1="818.9844" y2="890.9531"/><line style="stroke:#181818;stroke-width:1.0;" x1="336.5" x2="405.5" y1="890.9531" y2="890.9531"/><polygon fill="#181818" points="395.5,886.9531,405.5,890.9531,395.5,894.9531,399.5,890.9531" style="stroke:#181818;stroke-width:1.0;"/><line style="stroke:#181818;stroke-width:1.0;" x1="498.5" x2="498.5" y1="872.9531" y2="890.9531"/><line style="stroke:#181818;stroke-width:1.0;" x1="498.5" x2="429.5" y1="890.9531" y2="890.9531"/><polygon fill="#181818" points="439.5,886.9531,429.5,890.9531,439.5,894.9531,435.5,890.9531" style="stroke:#181818;stroke-width:1.0;"/><line style="stroke:#181818;stroke-width:1.0;" x1="417.5" x2="417.5" y1="731.0156" y2="751.0156"/><polygon fill="#181818" points="413.5,741.0156,417.5,751.0156,421.5,741.0156,417.5,745.0156" style="stroke:#181818;stroke-width:1.0;"/><line style="stroke:#181818;stroke-width:1.0;" x1="417.5" x2="417.5" y1="902.9531" y2="922.9531"/><polygon fill="#181818" points="413.5,912.9531,417.5,922.9531,421.5,912.9531,417.5,916.9531" style="stroke:#181818;stroke-width:1.0;"/><line style="stroke:#181818;stroke-width:1.0;" x1="530" x2="530" y1="1044.8906" y2="1064.8906"/><polygon fill="#181818" points="526,1054.8906,530,1064.8906,534,1054.8906,530,1058.8906" style="stroke:#181818;stroke-width:1.0;"/><line style="stroke:#181818;stroke-width:1.0;" x1="530" x2="530" y1="1201.2305" y2="1236.2305"/><polygon fill="#181818" points="526,1226.2305,530,1236.2305,534,1226.2305,530,1230.2305" style="stroke:#181818;stroke-width:1.0;"/><line style="stroke:#181818;stroke-width:1.0;" x1="530" x2="530" y1="1142.8594" y2="1167.2617"/><polygon fill="#181818" points="526,1157.2617,530,1167.2617,534,1157.2617,530,1161.2617" style="stroke:#181818;stroke-width:1.0;"/><line style="stroke:#181818;stroke-width:1.0;" x1="598.5" x2="665" y1="1130.8594" y2="1130.8594"/><polygon fill="#181818" points="661,1208.7461,665,1218.7461,669,1208.7461,665,1212.7461" style="stroke:#181818;stroke-width:1.0;"/><line style="stroke:#181818;stroke-width:1.0;" x1="665" x2="665" y1="1130.8594" y2="1298.2305"/><line style="stroke:#181818;stroke-width:1.0;" x1="665" x2="429.5" y1="1298.2305" y2="1298.2305"/><polygon fill="#181818" points="439.5,1294.2305,429.5,1298.2305,439.5,1302.2305,435.5,1298.2305" style="stroke:#181818;stroke-width:1.0;"/><line style="stroke:#181818;stroke-width:1.0;" x1="530" x2="530" y1="1098.8594" y2="1118.8594"/><polygon fill="#181818" points="526,1108.8594,530,1118.8594,534,1108.8594,530,1112.8594" style="stroke:#181818;stroke-width:1.0;"/><line style="stroke:#181818;stroke-width:1.0;" x1="351" x2="305" y1="988.9219" y2="988.9219"/><line style="stroke:#181818;stroke-width:1.0;" x1="305" x2="305" y1="988.9219" y2="1010.9219"/><polygon fill="#181818" points="301,1000.9219,305,1010.9219,309,1000.9219,305,1004.9219" style="stroke:#181818;stroke-width:1.0;"/><line style="stroke:#181818;stroke-width:1.0;" x1="484" x2="530" y1="988.9219" y2="988.9219"/><line style="stroke:#181818;stroke-width:1.0;" x1="530" x2="530" y1="988.9219" y2="1010.9219"/><polygon fill="#181818" points="526,1000.9219,530,1010.9219,534,1000.9219,530,1004.9219" style="stroke:#181818;stroke-width:1.0;"/><line style="stroke:#181818;stroke-width:1.0;" x1="305" x2="305" y1="1044.8906" y2="1298.2305"/><line style="stroke:#181818;stroke-width:1.0;" x1="305" x2="405.5" y1="1298.2305" y2="1298.2305"/><polygon fill="#181818" points="395.5,1294.2305,405.5,1298.2305,395.5,1302.2305,399.5,1298.2305" style="stroke:#181818;stroke-width:1.0;"/><line style="stroke:#181818;stroke-width:1.0;" x1="417.5" x2="417.5" y1="956.9219" y2="976.9219"/><polygon fill="#181818" points="413.5,966.9219,417.5,976.9219,421.5,966.9219,417.5,970.9219" style="stroke:#181818;stroke-width:1.0;"/><line style="stroke:#181818;stroke-width:1.0;" x1="417.5" x2="417.5" y1="1310.2305" y2="1330.2305"/><polygon fill="#181818" points="413.5,1320.2305,417.5,1330.2305,421.5,1320.2305,417.5,1324.2305" style="stroke:#181818;stroke-width:1.0;"/><line style="stroke:#181818;stroke-width:1.0;" x1="417.5" x2="417.5" y1="1364.1992" y2="1384.1992"/><polygon fill="#181818" points="413.5,1374.1992,417.5,1384.1992,421.5,1374.1992,417.5,1378.1992" style="stroke:#181818;stroke-width:1.0;"/><line style="stroke:#181818;stroke-width:1.0;" x1="166.5" x2="88.5" y1="153.2656" y2="153.2656"/><line style="stroke:#181818;stroke-width:1.0;" x1="88.5" x2="88.5" y1="153.2656" y2="175.2656"/><polygon fill="#181818" points="84.5,165.2656,88.5,175.2656,92.5,165.2656,88.5,169.2656" style="stroke:#181818;stroke-width:1.0;"/><line style="stroke:#181818;stroke-width:1.0;" x1="339.5" x2="417.5" y1="153.2656" y2="153.2656"/><line style="stroke:#181818;stroke-width:1.0;" x1="417.5" x2="417.5" y1="153.2656" y2="175.2656"/><polygon fill="#181818" points="413.5,165.2656,417.5,175.2656,421.5,165.2656,417.5,169.2656" style="stroke:#181818;stroke-width:1.0;"/><line style="stroke:#181818;stroke-width:1.0;" x1="88.5" x2="88.5" y1="209.2344" y2="1436.168"/><line style="stroke:#181818;stroke-width:1.0;" x1="88.5" x2="241" y1="1436.168" y2="1436.168"/><polygon fill="#181818" points="231,1432.168,241,1436.168,231,1440.168,235,1436.168" style="stroke:#181818;stroke-width:1.0;"/><line style="stroke:#181818;stroke-width:1.0;" x1="417.5" x2="417.5" y1="1418.168" y2="1436.168"/><line style="stroke:#181818;stroke-width:1.0;" x1="417.5" x2="265" y1="1436.168" y2="1436.168"/><polygon fill="#181818" points="275,1432.168,265,1436.168,275,1440.168,271,1436.168" style="stroke:#181818;stroke-width:1.0;"/><line style="stroke:#181818;stroke-width:1.0;" x1="253" x2="253" y1="121.2656" y2="141.2656"/><polygon fill="#181818" points="249,131.2656,253,141.2656,257,131.2656,253,135.2656" style="stroke:#181818;stroke-width:1.0;"/><line style="stroke:#181818;stroke-width:1.0;" x1="253" x2="253" y1="1448.168" y2="1468.168"/><polygon fill="#181818" points="249,1458.168,253,1468.168,257,1458.168,253,1462.168" style="stroke:#181818;stroke-width:1.0;"/><line style="stroke:#181818;stroke-width:1.0;" x1="253" x2="253" y1="1502.1367" y2="1522.1367"/><polygon fill="#181818" points="249,1512.1367,253,1522.1367,257,1512.1367,253,1516.1367" style="stroke:#181818;stroke-width:1.0;"/><line style="stroke:#181818;stroke-width:1.0;" x1="253" x2="253" y1="1556.1055" y2="1576.1055"/><polygon fill="#181818" points="249,1566.1055,253,1576.1055,257,1566.1055,253,1570.1055" style="stroke:#181818;stroke-width:1.0;"/><line style="stroke:#181818;stroke-width:1.0;" x1="253" x2="253" y1="1610.0742" y2="1630.0742"/><polygon fill="#181818" points="249,1620.0742,253,1630.0742,257,1620.0742,253,1624.0742" style="stroke:#181818;stroke-width:1.0;"/><line style="stroke:#181818;stroke-width:1.0;" x1="253" x2="253" y1="1664.043" y2="1684.043"/><polygon fill="#181818" points="249,1674.043,253,1684.043,257,1674.043,253,1678.043" style="stroke:#181818;stroke-width:1.0;"/><line style="stroke:#181818;stroke-width:1.0;" x1="366.75" x2="366.75" y1="1805.9805" y2="1825.9805"/><polygon fill="#181818" points="362.75,1815.9805,366.75,1825.9805,370.75,1815.9805,366.75,1819.9805" style="stroke:#181818;stroke-width:1.0;"/><line style="stroke:#181818;stroke-width:1.0;" x1="165.5" x2="139.25" y1="1750.0117" y2="1750.0117"/><line style="stroke:#181818;stroke-width:1.0;" x1="139.25" x2="139.25" y1="1750.0117" y2="1772.0117"/><polygon fill="#181818" points="135.25,1762.0117,139.25,1772.0117,143.25,1762.0117,139.25,1766.0117" style="stroke:#181818;stroke-width:1.0;"/><line style="stroke:#181818;stroke-width:1.0;" x1="340.5" x2="366.75" y1="1750.0117" y2="1750.0117"/><line style="stroke:#181818;stroke-width:1.0;" x1="366.75" x2="366.75" y1="1750.0117" y2="1772.0117"/><polygon fill="#181818" points="362.75,1762.0117,366.75,1772.0117,370.75,1762.0117,366.75,1766.0117" style="stroke:#181818;stroke-width:1.0;"/><line style="stroke:#181818;stroke-width:1.0;" x1="139.25" x2="139.25" y1="1805.9805" y2="1852.9805"/><line style="stroke:#181818;stroke-width:1.0;" x1="139.25" x2="253" y1="1852.9805" y2="1852.9805"/><line style="stroke:#181818;stroke-width:1.0;" x1="253" x2="253" y1="1852.9805" y2="1867.9805"/><polygon fill="#181818" points="249,1857.9805,253,1867.9805,257,1857.9805,253,1861.9805" style="stroke:#181818;stroke-width:1.0;"/><line style="stroke:#181818;stroke-width:1.0;" x1="253" x2="253" y1="1718.0117" y2="1738.0117"/><polygon fill="#181818" points="249,1728.0117,253,1738.0117,257,1728.0117,253,1732.0117" style="stroke:#181818;stroke-width:1.0;"/><line style="stroke:#181818;stroke-width:1.0;" x1="253" x2="253" y1="1901.9492" y2="1921.9492"/><polygon fill="#181818" points="249,1911.9492,253,1921.9492,257,1911.9492,253,1915.9492" style="stroke:#181818;stroke-width:1.0;"/><line style="stroke:#181818;stroke-width:1.0;" x1="253" x2="253" y1="1955.918" y2="1975.918"/><polygon fill="#181818" points="249,1965.918,253,1975.918,257,1965.918,253,1969.918" style="stroke:#181818;stroke-width:1.0;"/><line style="stroke:#181818;stroke-width:1.0;" x1="253" x2="253" y1="2009.8867" y2="2029.8867"/><polygon fill="#181818" points="249,2019.8867,253,2029.8867,257,2019.8867,253,2023.8867" style="stroke:#181818;stroke-width:1.0;"/><line style="stroke:#181818;stroke-width:1.0;" x1="253" x2="253" y1="2063.8555" y2="2083.8555"/><polygon fill="#181818" points="249,2073.8555,253,2083.8555,257,2073.8555,253,2077.8555" style="stroke:#181818;stroke-width:1.0;"/><line style="stroke:#181818;stroke-width:1.0;" x1="253" x2="253" y1="2117.8242" y2="2137.8242"/><polygon fill="#181818" points="249,2127.8242,253,2137.8242,257,2127.8242,253,2131.8242" style="stroke:#181818;stroke-width:1.0;"/><line style="stroke:#181818;stroke-width:1.0;" x1="253" x2="253" y1="2171.793" y2="2191.793"/><polygon fill="#181818" points="249,2181.793,253,2191.793,257,2181.793,253,2185.793" style="stroke:#181818;stroke-width:1.0;"/><!--MD5=[e3b332ac2649556d2dd2343429d349b5]
@startuml
title Activity Diagram - Bot Preparation and Early Lifecycle

start

:Create Bot;

if (Identity already assigned?) then (yes)
  :Use assigned identity;
else (no)
  :Start identity generation flow;

  if (Email available?) then (yes)
    :Reserve existing email;
  else (no)
    :Run Email Creation Pipeline;
    :Select email provider;
    :Generate mailbox username;
    :Generate strong password;
    :Create mailbox account;
    :Store email credentials;
    if (Email pipeline success?) then (yes)
      :Reserve new email;
    else (no)
      :Mark bot blocked (email unavailable);
      stop
    endif
  endif

  if (Proxy available?) then (yes)
    :Get proxy from pool;
  else (no)
    :Refresh proxy pool;
    :Get proxy from pool;
  endif

  :Test proxy connectivity;
  if (Proxy test passed?) then (yes)
    :Assign proxy to bot;
  else (no)
    :Reject proxy;
    :Retry get proxy + test;
    if (Retry limit reached?) then (yes)
      :Mark bot blocked (proxy unavailable);
      stop
    endif
  endif

  :Generate identity (username, persona, credentials);
  :Bind identity + email + proxy to bot;
endif

:Select target platform;
:Bot ready for account generation pipeline;

:Run account creation pipeline;
:Submit registration data;
:Handle verification (email/SMS/captcha/manual step if needed);
if (Account creation success?) then (yes)
  :Persist platform account/session;
else (no)
  :Mark identity failed/flagged;
  stop
endif

:Run algorithm for minor activity;
:Low-risk actions (view, light vote, short interaction);

:Add profile to sandbox;
:Run trust-building pipeline;
:Gradual activity ramp-up;
:Monitor flags/health metrics;

stop
@enduml

PlantUML version 1.2022.7(Mon Aug 22 17:01:30 UTC 2022)
(GPL source distribution)
Java Runtime: OpenJDK Runtime Environment
JVM: OpenJDK 64-Bit Server VM
Default Encoding: UTF-8
Language: en
Country: null
--></g></svg>